<?xml version="1.0" encoding="UTF-8" standalone="no"?>
<svg
   xmlns:dc="http://purl.org/dc/elements/1.1/"
   xmlns:cc="http://creativecommons.org/ns#"
   xmlns:rdf="http://www.w3.org/1999/02/22-rdf-syntax-ns#"
   xmlns:svg="http://www.w3.org/2000/svg"
   xmlns="http://www.w3.org/2000/svg"
   xmlns:sodipodi="http://sodipodi.sourceforge.net/DTD/sodipodi-0.dtd"
   xmlns:inkscape="http://www.inkscape.org/namespaces/inkscape"
   width="700"
   height="700"
   viewBox="0 0 560 560"
   version="1.1"
   id="svg2"
   sodipodi:version="0.32"
   inkscape:version="0.92.4 (5da689c313, 2019-01-14)"
   sodipodi:docname="garena-logo.svg"
   inkscape:export-filename="G:\Users\suitedoalex\sites\garena-logo-0.png"
   inkscape:export-xdpi="561.73712"
   inkscape:export-ydpi="561.73712">
  <title
     id="title855">Garena logo</title>
  <metadata
     id="metadata59">
    <rdf:RDF>
      <cc:Work
         rdf:about="">
        <dc:format>image/svg+xml</dc:format>
        <dc:type
           rdf:resource="http://purl.org/dc/dcmitype/StillImage" />
        <dc:title>Garena logo</dc:title>
        <cc:license
           rdf:resource="http://scripts.sil.org/OFL" />
        <dc:date>17 abr 2020</dc:date>
        <dc:creator>
          <cc:Agent>
            <dc:title>EEIM</dc:title>
          </cc:Agent>
        </dc:creator>
        <dc:rights>
          <cc:Agent>
            <dc:title>N/A</dc:title>
          </cc:Agent>
        </dc:rights>
      </cc:Work>
      <cc:License
         rdf:about="http://scripts.sil.org/OFL">
        <cc:permits
           rdf:resource="http://scripts.sil.org/pub/OFL/Reproduction" />
        <cc:permits
           rdf:resource="http://scripts.sil.org/pub/OFL/Distribution" />
        <cc:permits
           rdf:resource="http://scripts.sil.org/pub/OFL/Embedding" />
        <cc:permits
           rdf:resource="http://scripts.sil.org/pub/OFL/DerivativeWorks" />
        <cc:requires
           rdf:resource="http://scripts.sil.org/pub/OFL/Notice" />
        <cc:requires
           rdf:resource="http://scripts.sil.org/pub/OFL/Attribution" />
        <cc:requires
           rdf:resource="http://scripts.sil.org/pub/OFL/ShareAlike" />
        <cc:requires
           rdf:resource="http://scripts.sil.org/pub/OFL/DerivativeRenaming" />
        <cc:requires
           rdf:resource="http://scripts.sil.org/pub/OFL/BundlingWhenSelling" />
      </cc:License>
    </rdf:RDF>
  </metadata>
  <defs
     id="defs57">
    <pattern
       y="0"
       x="0"
       height="6"
       width="6"
       patternUnits="userSpaceOnUse"
       id="EMFhbasepattern" />
    <pattern
       y="0"
       x="0"
       height="6"
       width="6"
       patternUnits="userSpaceOnUse"
       id="EMFhbasepattern-7" />
  </defs>
  <sodipodi:namedview
     inkscape:window-height="837"
     inkscape:window-width="1600"
     inkscape:pageshadow="2"
     inkscape:pageopacity="0"
     guidetolerance="1"
     gridtolerance="1"
     objecttolerance="1"
     borderopacity="1.0"
     bordercolor="#666666"
     pagecolor="#ffffff"
     id="base"
     inkscape:zoom="0.70710678"
     inkscape:cx="365.31402"
     inkscape:cy="261.45663"
     inkscape:window-x="-8"
     inkscape:window-y="-8"
     inkscape:current-layer="svg2"
     showgrid="false"
     showguides="false"
     inkscape:showpageshadow="false"
     units="px"
     inkscape:window-maximized="1">
    <inkscape:grid
       type="xygrid"
       id="grid857" />
  </sodipodi:namedview>
  <g
     id="#ffffffff"
     transform="matrix(0.97274843,0,0,0.97274843,126.35726,-1081.8458)"
     inkscape:export-filename="G:\Users\suitedoalex\sites\garena-logo-4.png"
     inkscape:export-xdpi="67.398483"
     inkscape:export-ydpi="67.398483" />
  <g
     id="#2acbffff-4"
     transform="matrix(0.72017598,0,0,0.73390988,-691.68234,-776.55237)"
     style="fill:#00ff00"
     inkscape:export-filename="G:\Users\suitedoalex\sites\garena-logo-4.png"
     inkscape:export-xdpi="67.398483"
     inkscape:export-ydpi="67.398483" />
  <path
     id="path822-4"
     d="m 136.05742,286.19194 c 3.24294,2.77815 9.36846,4.16723 10.89985,14.16854 1.53138,10.00135 -7.02635,25.8368 -19.72781,30.93003 -8.82799,3.61158 -13.78244,2.68558 -21.79969,2.12992 -3.42309,-1.9447 -11.890735,-3.33378 -15.403903,-13.61292 -1.891701,-5.55632 -3.423088,-12.31647 -1.171047,-18.24319 l 1.171047,-3.6116 c 0.810737,-4.44495 0.450382,1.29652 1.711541,-2.31505 0.180173,-0.55571 -0.360325,-0.27786 0.720661,-1.85216 l 3.513178,-3.98198 c 1.891704,-1.94474 2.702431,-1.66687 3.332996,-4.16722 -2.252029,-0.64829 -0.810718,-0.64829 -3.062747,-1.29651 l 2.792508,-3.33372 c 0.720651,-1.01866 0.540488,-0.27785 0.900813,-1.66696 2.702433,0.6483 1.981793,1.20388 4.233813,1.85217 -2.61235,-5.0933 -0.90081,-4.81543 3.24292,-9.26052 3.06277,-3.24114 4.95447,-4.53765 9.09823,-6.48236 5.40489,-2.50028 11.80064,-3.14856 18.91707,-2.50028 2.7925,0.27783 3.8735,1.11121 6.84619,1.20384 l 0.72065,0.55572 c 0.99092,0.64827 0.18018,0.18501 1.17105,0.64827 4.23384,2.0373 11.6205,5.27844 15.9444,5.74147 11.71056,1.01869 6.39579,-0.3707 17.11546,0 2.97269,0.0928 2.8826,0.55569 5.49497,0.64825 -2.25204,-3.05594 -5.13465,-2.68548 -7.38668,-4.44497 5.85528,-0.64831 5.49495,-0.0928 6.39577,-1.48176 0.54043,-1.11126 1.44131,-1.85205 3.42308,-1.75948 l 1.71155,0.27786 c 0.0901,0 0.27028,0 0.36041,0 0.0901,0 0.36038,-0.0928 0.45044,-0.0928 0.0901,0 0.27021,-0.0928 0.36039,-0.0928 3.33301,-0.92603 5.22471,-3.88937 9.00813,-4.72286 3.4231,-0.83344 6.93626,-0.83344 10.80976,-6.57495 -5.31479,0.46289 -14.50308,10.27916 -40.5366,1.38907 -1.98177,-0.74085 -3.69333,-1.57429 -5.49494,-2.03728 0.81071,-1.57427 1.17104,-2.87079 -0.0901,-4.81544 -1.26113,-2.03736 -4.86439,-3.42643 -7.20651,-3.98208 -1.53138,-0.74085 -3.96357,-1.57423 -6.03544,-2.0373 -1.89172,-0.46286 -4.68423,-0.64819 -6.84617,-1.11122 1.08097,-0.74083 4.86438,-1.11127 6.2156,-1.20387 2.16195,-0.27782 4.95447,-0.0928 7.20651,-0.0928 -1.26113,-1.75951 -2.8826,-1.38907 -6.03545,-1.20386 l -5.49496,0.0928 c -4.23382,1.11121 -5.22472,1.75943 -11.07999,1.75943 0.54049,-1.57423 1.53138,-1.75943 -0.54051,-1.94465 -13.51229,-1.38914 -25.67328,6.6675 -29.54677,7.59351 1.26115,-1.66685 17.92617,-11.01993 20.89885,-12.59422 l 18.28651,-10.83494 c 1.35123,-1.01865 1.44131,-0.46284 1.89171,-2.40772 l -7.02633,2.2225 c -5.58504,2.31516 -19.18733,6.48238 -24.77238,7.31583 -6.12552,0.92604 0.27029,-1.01867 -8.64779,1.75949 l -3.333014,1.01865 c -3.423082,1.38906 -1.891704,1.66689 -3.873494,2.31512 -2.792508,0.92608 0,-1.01863 -2.522279,0 -1.981799,0.83344 -0.720641,1.11129 -3.152843,1.75952 1.26113,-1.94471 2.882614,-2.96337 4.774318,-4.53766 2.612345,-2.22251 4.413982,-2.77816 5.044537,-4.90807 -3.062767,0.0928 -4.233819,1.57428 -6.305686,3.05599 -2.071867,1.38908 -3.783418,2.50031 -5.855284,3.98199 -2.252039,1.57431 -2.972677,2.59295 -5.585044,3.79681 -2.702431,1.20385 -3.87349,2.12993 -6.215609,3.70422 0.630573,-2.40779 2.432195,-3.98201 3.693342,-6.29714 -2.792521,0.74084 -0.630568,1.29643 -4.954477,4.25979 -2.252034,1.57429 -1.621464,1.57429 -2.432194,3.14859 -1.711546,3.05598 -3.693344,2.77814 -7.386673,7.59356 -2.342119,3.05602 -6.035449,4.16729 -7.296584,6.29717 l -0.540501,1.75949 c 0,0.0928 0,0.27784 -0.09006,0.37069 -1.171054,2.40774 -4.59414,3.05594 -4.86439,6.76015 2.702445,0.0928 4.323908,0.64828 7.927155,0.64828 21.079025,-0.0928 22.160001,-10.83481 44.86048,-8.89008 3.15285,0.27786 5.67513,0.74085 8.55774,0.74085 v 1.20387 c -7.65691,0.18502 -23.1509,8.42707 -28.105372,12.13122 -7.566821,5.83416 -14.142762,13.79817 -17.295606,23.8921 -5.585041,18.52099 3.513171,32.59691 17.926172,40.09794 3.423083,1.7595 10.539515,5.09328 14.953496,5.18586 2.70244,1.11128 26.84424,0.74085 27.4748,0.5557 1.98178,-0.64828 0.45045,0.0928 -0.0901,-0.46286 -1.35122,-1.29644 -1.26114,0.83344 -0.81074,-0.74087 1.53138,-0.27785 5.13464,-0.64815 6.21562,-1.48165 0,-0.0928 0.18016,-0.185 0.18016,-0.27785 l 0.3604,-0.74084 c 4.50407,0 9.6387,-0.92608 12.61139,-2.77822 3.06276,-1.94465 3.42308,-1.11123 7.38665,-2.50029 4.32392,-1.38908 15.40391,-5.18586 17.3857,-7.87144 -3.87349,0.92606 -10.62959,4.35243 -17.74601,4.35243 0.0901,-0.0928 0.3604,-0.27786 0.3604,-0.18503 0.0901,0.0928 0.36038,-0.18499 0.45044,-0.27785 4.05365,-2.2225 1.80162,-1.29642 3.8735,-2.87072 0.54049,-0.46287 1.4413,-0.8335 2.07187,-1.11128 -0.0901,-1.94472 -0.27029,-2.22249 -0.63058,-3.7968 2.16194,-1.4817 1.89168,-0.83342 2.43217,-3.05594 l 0.18016,-1.11127 c 0.6306,-3.42636 1.71154,-4.25981 4.95448,-8.24182 l 9.00814,-10.64969 c -0.27021,-2.77816 19.54765,-10.18651 20.17822,-17.87276 -1.62146,1.29651 -1.26111,2.31515 -4.77431,5.0933 -5.67511,4.44501 -8.01723,4.44501 -15.40391,4.35243 -4.32389,0 -5.85528,0.64828 -9.81885,0.64828 1.80163,-2.68557 1.53139,0.0928 2.43219,-3.14858 -3.06276,0.74087 -3.96356,1.29643 -7.92715,1.29643 -9.27836,0.0928 -10.26926,-6.20444 -21.70958,-6.94529 -10.53953,-0.18504 -22.97074,-2.40772 -34.41106,5.37108 -17.565859,11.94602 -10.899835,28.15191 1.53137,28.70753 3.4231,0.0928 6.03546,-1.01864 7.747,-2.77813 6.39577,-6.8528 -1.35123,-12.96472 -2.07187,-13.89075 -6.84618,-10.00137 5.7652,-14.53902 19.09724,-12.03865 1.9818,0.27784 2.8826,0.74084 4.59414,0.83343 z"
     style="fill:#d40000;fill-opacity:1;fill-rule:evenodd;stroke:none;stroke-width:1.14168847"
     inkscape:connector-curvature="0"
     inkscape:export-filename="G:\Users\suitedoalex\sites\garena-logo-4.png"
     inkscape:export-xdpi="67.398483"
     inkscape:export-ydpi="67.398483" />
  <path
     style="fill:#d40000;fill-opacity:1;fill-rule:evenodd;stroke:none;stroke-width:1.38448179"
     d="m 250.69288,247.54044 c -8.28214,0.1003 -16.61738,3.08113 -22.34909,9.14516 -16.5029,17.38893 -11.07334,60.91447 21.71093,60.91447 6.53472,0 10.41006,-0.77336 15.28343,-3.54234 3.76574,-2.10434 4.7612,-2.88013 6.86562,-5.98138 l 1.99559,-2.54721 0.88423,10.52149 h 5.09716 v -34.66608 h -28.68743 v 6.08954 h 22.70604 c -0.66455,26.47109 -29.24209,29.7937 -40.53938,16.39205 -12.07258,-14.39849 -8.97096,-44.63521 11.40848,-49.287 14.28774,-3.21198 26.58386,5.98261 26.8054,15.50778 h 7.53082 c -1.24603,-14.88306 -14.90814,-22.71415 -28.7118,-22.54648 z m 188.17601,18.293 c -2.73606,-0.0495 -5.48293,0.3765 -7.94727,1.15198 -5.4271,1.66133 -5.31707,3.65555 -8.97206,6.09223 v -5.9814 h -6.75748 v 48.95438 h 6.75748 v -28.57654 c 0,-19.49334 26.35922,-21.37456 26.35922,-3.76409 v 32.34063 h 6.86831 v -33.11669 c 0,-12.46021 -8.10003,-16.94477 -16.3082,-17.1005 z m -129.68703,0.003 c -9.19376,0.10362 -19.14481,4.36069 -19.14481,17.0978 h 6.75745 c 0,-14.50923 21.92966,-14.95348 24.36635,-3.98851 3.76576,16.39216 -33.44926,0.55619 -33.44926,24.36909 0,9.96819 7.97348,14.28555 18.16319,14.28555 8.30685,0 11.9612,-3.8766 15.83774,-8.30684 1.66133,7.42076 1.99395,6.75739 11.29757,6.75739 v -5.98139 c -4.31957,0.99684 -5.31617,-0.55425 -5.31617,-5.98139 -0.33241,-15.28453 2.7693,-29.01768 -5.09448,-34.88784 -2.65817,-1.99362 -7.90131,-3.42614 -13.41758,-3.36386 z m 175.91844,0.0275 c -9.28892,-0.1582 -20.17777,3.74518 -20.17777,17.0707 h 6.86837 c 0,-16.17062 24.03373,-13.07036 24.03373,-3.76672 v 3.76672 c 0,9.41443 -33.11669,-1.54942 -33.11669,20.38061 0,16.61364 22.26275,17.38751 30.68034,9.52368 2.10435,-1.88288 1.10802,-1.99445 3.21242,-3.54498 0.66455,7.86375 4.76286,6.7574 11.29758,6.7574 v -5.9814 c -2.87971,0.66457 -1.55224,0.66457 -4.43196,0 -4.09802,-17.27821 5.09525,-35.4432 -7.86344,-41.97791 -2.38819,-1.24599 -6.28037,-2.15634 -10.50258,-2.2281 z m -99.35013,0.12181 c -12.39941,0.09 -21.06198,10.00026 -21.06198,23.70651 v 6.08961 c 0,29.23998 42.97307,27.80118 42.97307,3.76673 -11.2973,0 -3.43283,0.55332 -10.29982,7.75254 -7.53155,7.75303 -21.59825,5.42852 -25.25327,-6.86561 -0.77529,-2.43663 -0.33071,-4.65327 -1.43858,-6.97917 h 37.76774 c 0,-14.28775 -4.87427,-25.91715 -20.15885,-27.35707 -0.85838,-0.0833 -1.70169,-0.11964 -2.52831,-0.11361 z m -21.83803,0.33513 c -6.97773,0 -11.51806,1.66206 -15.72683,6.2031 l -3.10158,4.3184 v -9.74542 h -6.09225 v 48.95438 h 6.75748 v -27.13527 c 0,-9.30367 7.4197,-15.83771 18.16318,-15.83771 z m 22.59519,5.31619 c 9.08215,0 14.39711,8.08541 15.06167,16.6138 h -30.12602 c 0,-8.52839 6.64678,-16.6138 15.06435,-16.6138 z m -64.79481,18.82839 c 0,6.75626 -0.32965,11.29872 -2.98802,15.17523 -6.42393,9.19293 -24.25821,7.31045 -24.25821,-2.32546 0,-12.07259 19.05012,-8.5302 27.24623,-12.84977 z m 174.11211,0.77609 c 0,7.53149 0.99691,9.8583 -2.65809,14.62089 -5.5379,7.5315 -23.70115,9.19157 -23.70115,-4.09935 0,-4.65183 6.42381,-7.08825 10.85411,-7.97429 z"
     id="path824-5"
     inkscape:connector-curvature="0"
     inkscape:export-filename="G:\Users\suitedoalex\sites\garena-logo-4.png"
     inkscape:export-xdpi="67.398483"
     inkscape:export-ydpi="67.398483" />
</svg>
